<mxfile host="Electron" modified="2023-10-04T11:19:41.784Z" agent="5.0 (Windows NT 10.0; Win64; x64) AppleWebKit/537.36 (KHTML, like Gecko) draw.io/20.3.0 Chrome/104.0.5112.114 Electron/20.1.3 Safari/537.36" etag="YNdWnoKxR-DFxAQbPxiG" compressed="false" version="20.3.0" type="device">
  <diagram name="PE018A" id="1CP9VX86ncTdAmcYDIcw">
    <mxGraphModel dx="782" dy="531" grid="1" gridSize="2" guides="1" tooltips="1" connect="1" arrows="1" fold="1" page="1" pageScale="1" pageWidth="1169" pageHeight="827" math="0" shadow="0">
      <root>
        <mxCell id="22vkG-h5v2N9dKBLQ-ZE-0" />
        <mxCell id="22vkG-h5v2N9dKBLQ-ZE-135" value="Label" style="locked=1;" parent="22vkG-h5v2N9dKBLQ-ZE-0" />
        <object label="%LabelLines%&amp;nbsp; &amp;nbsp; &amp;nbsp; &amp;nbsp; &amp;nbsp; &amp;nbsp;%LabelIndex%" placeholders="1" LabelLines="1" LabelIndex="A" id="etmBhNtIcz9BoGHvMOfQ-8">
          <mxCell style="rounded=0;whiteSpace=wrap;html=1;fillColor=none;strokeColor=#FF0000;fontColor=#FF0000;fontSize=10;align=left;" parent="22vkG-h5v2N9dKBLQ-ZE-135" vertex="1">
            <mxGeometry x="298" y="368" width="80" height="16" as="geometry" />
          </mxCell>
        </object>
        <object label="Symbol" Width="15" Height="6" UoM="mm" id="22vkG-h5v2N9dKBLQ-ZE-138">
          <mxCell style="locked=1;" parent="22vkG-h5v2N9dKBLQ-ZE-0" />
        </object>
        <mxCell id="etmBhNtIcz9BoGHvMOfQ-0" value="" style="rounded=0;whiteSpace=wrap;html=1;fillColor=none;" parent="22vkG-h5v2N9dKBLQ-ZE-138" vertex="1">
          <mxGeometry x="256" y="256" width="160" height="96" as="geometry" />
        </mxCell>
        <mxCell id="etmBhNtIcz9BoGHvMOfQ-1" value="" style="shape=or;whiteSpace=wrap;html=1;fillColor=none;" parent="22vkG-h5v2N9dKBLQ-ZE-138" vertex="1">
          <mxGeometry x="416" y="256" width="16" height="96" as="geometry" />
        </mxCell>
        <mxCell id="etmBhNtIcz9BoGHvMOfQ-2" value="" style="shape=or;whiteSpace=wrap;html=1;fillColor=none;rotation=-180;" parent="22vkG-h5v2N9dKBLQ-ZE-138" vertex="1">
          <mxGeometry x="240" y="256" width="16" height="96" as="geometry" />
        </mxCell>
        <mxCell id="etmBhNtIcz9BoGHvMOfQ-3" value="" style="endArrow=none;html=1;rounded=0;" parent="22vkG-h5v2N9dKBLQ-ZE-138" edge="1">
          <mxGeometry width="50" height="50" relative="1" as="geometry">
            <mxPoint x="272" y="272" as="sourcePoint" />
            <mxPoint x="400" y="272" as="targetPoint" />
          </mxGeometry>
        </mxCell>
        <mxCell id="etmBhNtIcz9BoGHvMOfQ-4" value="" style="endArrow=none;html=1;rounded=0;" parent="22vkG-h5v2N9dKBLQ-ZE-138" edge="1">
          <mxGeometry width="50" height="50" relative="1" as="geometry">
            <mxPoint x="272" y="336" as="sourcePoint" />
            <mxPoint x="400" y="336" as="targetPoint" />
          </mxGeometry>
        </mxCell>
        <mxCell id="etmBhNtIcz9BoGHvMOfQ-5" value="" style="endArrow=none;html=1;rounded=0;" parent="22vkG-h5v2N9dKBLQ-ZE-138" edge="1">
          <mxGeometry width="50" height="50" relative="1" as="geometry">
            <mxPoint x="272" y="303.5" as="sourcePoint" />
            <mxPoint x="400" y="303.5" as="targetPoint" />
          </mxGeometry>
        </mxCell>
        <mxCell id="etmBhNtIcz9BoGHvMOfQ-6" value="" style="endArrow=none;html=1;rounded=0;exitX=1;exitY=0.5;exitDx=0;exitDy=0;exitPerimeter=0;" parent="22vkG-h5v2N9dKBLQ-ZE-138" source="etmBhNtIcz9BoGHvMOfQ-1" edge="1">
          <mxGeometry width="50" height="50" relative="1" as="geometry">
            <mxPoint x="438" y="464" as="sourcePoint" />
            <mxPoint x="480" y="304" as="targetPoint" />
          </mxGeometry>
        </mxCell>
        <mxCell id="22vkG-h5v2N9dKBLQ-ZE-124" value="Connection" style="" parent="22vkG-h5v2N9dKBLQ-ZE-0" />
        <object label="Connection" PipingConnector="N" LabelConnector="N" SignalConnector="N" Direction="0" AuxiliaryConnector="Y" id="etmBhNtIcz9BoGHvMOfQ-9">
          <mxCell style="vsdxID=1407;fillColor=none;gradientColor=none;shape=stencil(rVFbDsIgEDwNnyQU4glqvcfGblsilmZBS28vZGMsxg9j/JvZmX1kR5g2TLCg0CpE8hdcbR8nYY5CaztPSDZmJEwnTDt4wpH8be6ZL1CcBV39vUxI3KdKh1YbswPTEzuBzlmiVGmKau9zUKM+jlJJQrJBko8QrZ+rrQ5oRJnXyMHBWElhRVx25ebnw/5zVvPFWRm83jxY5zilvf4eSy5xpKZ7AA==);strokeColor=#00ff00;strokeWidth=1;points=[[0.5,0.5,0,0,0]];labelBackgroundColor=none;rounded=0;html=1;whiteSpace=wrap;aspect=fixed;noLabel=1;snapToPoint=1;container=0;fontSize=16;" parent="22vkG-h5v2N9dKBLQ-ZE-124" vertex="1">
            <mxGeometry x="474" y="298" width="12" height="12" as="geometry" />
          </mxCell>
        </object>
        <mxCell id="22vkG-h5v2N9dKBLQ-ZE-136" value="Origo" style="locked=1;" parent="22vkG-h5v2N9dKBLQ-ZE-0" visible="0" />
        <object label="origo" id="etmBhNtIcz9BoGHvMOfQ-7">
          <mxCell style="vsdxID=1407;fillColor=none;gradientColor=none;shape=stencil(rVFbDsIgEDwNnyQU4glqvcfGblsilmZBS28vZGMsxg9j/JvZmX1kR5g2TLCg0CpE8hdcbR8nYY5CaztPSDZmJEwnTDt4wpH8be6ZL1CcBV39vUxI3KdKh1YbswPTEzuBzlmiVGmKau9zUKM+jlJJQrJBko8QrZ+rrQ5oRJnXyMHBWElhRVx25ebnw/5zVvPFWRm83jxY5zilvf4eSy5xpKZ7AA==);strokeColor=#ff0000;strokeWidth=1;points=[[0.5,0.5,0,0,0]];labelBackgroundColor=none;rounded=0;html=1;whiteSpace=wrap;aspect=fixed;noLabel=1;snapToPoint=1;" parent="22vkG-h5v2N9dKBLQ-ZE-136" vertex="1">
            <mxGeometry x="476" y="300" width="8" height="8" as="geometry" />
          </mxCell>
        </object>
      </root>
    </mxGraphModel>
  </diagram>
</mxfile>
